ffmpeg started on 2025-06-19 at 11:47:27
Report written to "D:\Convert\FFMetrics\reports\ssim_report-6.txt"
Log level: 32
Command line:
ffmpeg -hide_banner -nostdin -i "G:\\\xc0\xed\xe8\xec\xe5\\[\xd2\xee\xef-4]\\Fate\\\xc0\xef\xee\xea\xf0\xe8\xf4\\Fate_Apocrypha_[04]_[AniLibria_TV]_[HDTVRip_720p]_HEVC.mkv" -i "G:\\\xc0\xed\xe8\xec\xe5\\[\xd2\xee\xef-4]\\Fate\\\xc0\xef\xee\xea\xf0\xe8\xf4\\Fate_Apocrypha_[04]_[AniLibria_TV]_[HDTVRip_720p].mkv" -lavfi "[0:v]settb=AVTB,setpts=PTS-STARTPTS,format=pix_fmts=yuv420p10,fps=24000/1001,scale=1280:720:flags=bicubic[main];[1:v]settb=AVTB,setpts=PTS-STARTPTS,format=pix_fmts=yuv420p,fps=24000/1001,scale=1280:720:flags=bicubic[ref];[main][ref]ssim=eof_action=endall:stats_file='D\\:/Convert/FFMetrics/logs/ssim_logfile-6.txt'" -f null -
Input #0, matroska,webm, from 'G:\Аниме\[Топ-4]\Fate\Апокриф\Fate_Apocrypha_[04]_[AniLibria_TV]_[HDTVRip_720p]_HEVC.mkv':
  Metadata:
    ENCODER         : Lavf61.7.100
  Duration: 00:24:00.13, start: -0.021000, bitrate: 811 kb/s
  Stream #0:0(jpn): Video: hevc (Main 10), yuv420p10le(tv, bt709, progressive), 1280x720 [SAR 1:1 DAR 16:9], 23.81 fps, 23.81 tbr, 1k tbn (default)
      Metadata:
        ENCODER         : Lavc61.19.100 libx265
        BPS             : 613377
        DURATION        : 00:24:00.054000000
        NUMBER_OF_FRAMES: 34526
        NUMBER_OF_BYTES : 110412044
        _STATISTICS_WRITING_APP: mkvpropedit v66.0.0 ('Josie') 64-bit
        _STATISTICS_WRITING_DATE_UTC: 2025-06-16 15:12:22
        _STATISTICS_TAGS: BPS DURATION NUMBER_OF_FRAMES NUMBER_OF_BYTES
  Stream #0:1(rus): Audio: aac (LC), 48000 Hz, stereo, fltp (default)
      Metadata:
        title           : Ados Amikiri Anzen Hekomi Silv
        ENCODER         : Lavc61.19.100 aac
        BPS             : 194247
        DURATION        : 00:24:00.106000000
        NUMBER_OF_FRAMES: 67506
        NUMBER_OF_BYTES : 34967110
        _STATISTICS_WRITING_APP: mkvpropedit v66.0.0 ('Josie') 64-bit
        _STATISTICS_WRITING_DATE_UTC: 2025-06-16 15:12:22
        _STATISTICS_TAGS: BPS DURATION NUMBER_OF_FRAMES NUMBER_OF_BYTES
  Stream #0:2(rus): Subtitle: ass (ssa) (default) (forced)
      Metadata:
        title           : Надписи
        BPS             : 8
        DURATION        : 00:17:27.670000000
        NUMBER_OF_FRAMES: 5
        NUMBER_OF_BYTES : 1149
        _STATISTICS_WRITING_APP: mkvpropedit v66.0.0 ('Josie') 64-bit
        _STATISTICS_WRITING_DATE_UTC: 2025-06-16 15:12:22
        _STATISTICS_TAGS: BPS DURATION NUMBER_OF_FRAMES NUMBER_OF_BYTES
  Stream #0:3(rus): Subtitle: ass (ssa)
      Metadata:
        title           : Полные
        BPS             : 166
        DURATION        : 00:21:56.500000000
        NUMBER_OF_FRAMES: 300
        NUMBER_OF_BYTES : 27413
        _STATISTICS_WRITING_APP: mkvpropedit v66.0.0 ('Josie') 64-bit
        _STATISTICS_WRITING_DATE_UTC: 2025-06-16 15:12:22
        _STATISTICS_TAGS: BPS DURATION NUMBER_OF_FRAMES NUMBER_OF_BYTES
Input #1, matroska,webm, from 'G:\Аниме\[Топ-4]\Fate\Апокриф\Fate_Apocrypha_[04]_[AniLibria_TV]_[HDTVRip_720p].mkv':
  Metadata:
    encoder         : libebml v1.3.0 + libmatroska v1.4.1
    creation_time   : 2017-08-07T05:44:18.000000Z
  Duration: 00:24:00.11, start: 0.000000, bitrate: 2443 kb/s
  Stream #1:0: Video: h264 (Main), yuv420p(tv, bt709, progressive), 1280x720, SAR 1:1 DAR 16:9, 23.81 fps, 23.81 tbr, 1k tbn (default)
      Metadata:
        _STATISTICS_WRITING_APP: mkvmerge v7.3.0 ('Nouages') 64bit built on Oct 22 2014 18:53:34
        _STATISTICS_WRITING_APP-eng: mkvmerge v7.3.0 ('Nouages') 64bit built on Oct 22 2014 18:53:34
        _STATISTICS_WRITING_DATE_UTC: 2017-08-07 05:44:18
        _STATISTICS_WRITING_DATE_UTC-eng: 2017-08-07 05:44:18
        _STATISTICS_TAGS: BPS DURATION NUMBER_OF_FRAMES NUMBER_OF_BYTES
        _STATISTICS_TAGS-eng: BPS DURATION NUMBER_OF_FRAMES NUMBER_OF_BYTES
        BPS             : 2027069
        BPS-eng         : 2027069
        DURATION        : 00:24:00.053000000
        DURATION-eng    : 00:24:00.053000000
        NUMBER_OF_FRAMES: 34526
        NUMBER_OF_FRAMES-eng: 34526
        NUMBER_OF_BYTES : 364885961
        NUMBER_OF_BYTES-eng: 364885961
  Stream #1:1(rus): Audio: aac (LC), 48000 Hz, stereo, fltp (default)
      Metadata:
        title           : Ados Amikiri Anzen Hekomi Silv
        BPS             : 192092
        BPS-eng         : 192092
        DURATION        : 00:24:00.106000000
        DURATION-eng    : 00:24:00.106000000
        NUMBER_OF_FRAMES: 67505
        NUMBER_OF_FRAMES-eng: 67505
        NUMBER_OF_BYTES : 34579173
        NUMBER_OF_BYTES-eng: 34579173
        _STATISTICS_WRITING_APP: mkvmerge v7.3.0 ('Nouages') 64bit built on Oct 22 2014 18:53:34
        _STATISTICS_WRITING_APP-eng: mkvmerge v7.3.0 ('Nouages') 64bit built on Oct 22 2014 18:53:34
        _STATISTICS_WRITING_DATE_UTC: 2017-08-07 05:44:18
        _STATISTICS_WRITING_DATE_UTC-eng: 2017-08-07 05:44:18
        _STATISTICS_TAGS: BPS DURATION NUMBER_OF_FRAMES NUMBER_OF_BYTES
        _STATISTICS_TAGS-eng: BPS DURATION NUMBER_OF_FRAMES NUMBER_OF_BYTES
  Stream #1:2(jpn): Audio: aac (LC), 48000 Hz, stereo, fltp
      Metadata:
        title           : Оригинал
        _STATISTICS_WRITING_APP: mkvmerge v7.3.0 ('Nouages') 64bit built on Oct 22 2014 18:53:34
        _STATISTICS_WRITING_APP-eng: mkvmerge v7.3.0 ('Nouages') 64bit built on Oct 22 2014 18:53:34
        _STATISTICS_WRITING_DATE_UTC: 2017-08-07 05:44:18
        _STATISTICS_WRITING_DATE_UTC-eng: 2017-08-07 05:44:18
        _STATISTICS_TAGS: BPS DURATION NUMBER_OF_FRAMES NUMBER_OF_BYTES
        _STATISTICS_TAGS-eng: BPS DURATION NUMBER_OF_FRAMES NUMBER_OF_BYTES
        BPS             : 219632
        BPS-eng         : 219632
        DURATION        : 00:24:00.085000000
        DURATION-eng    : 00:24:00.085000000
        NUMBER_OF_FRAMES: 67504
        NUMBER_OF_FRAMES-eng: 67504
        NUMBER_OF_BYTES : 39536111
        NUMBER_OF_BYTES-eng: 39536111
  Stream #1:3(rus): Subtitle: ass (ssa) (default) (forced)
      Metadata:
        title           : Надписи
        _STATISTICS_WRITING_APP: mkvmerge v7.3.0 ('Nouages') 64bit built on Oct 22 2014 18:53:34
        _STATISTICS_WRITING_APP-eng: mkvmerge v7.3.0 ('Nouages') 64bit built on Oct 22 2014 18:53:34
        _STATISTICS_WRITING_DATE_UTC: 2017-08-07 05:44:18
        _STATISTICS_WRITING_DATE_UTC-eng: 2017-08-07 05:44:18
        _STATISTICS_TAGS: BPS DURATION NUMBER_OF_FRAMES NUMBER_OF_BYTES
        _STATISTICS_TAGS-eng: BPS DURATION NUMBER_OF_FRAMES NUMBER_OF_BYTES
        BPS             : 8
        BPS-eng         : 8
        DURATION        : 00:17:27.670000000
        DURATION-eng    : 00:17:27.670000000
        NUMBER_OF_FRAMES: 5
        NUMBER_OF_FRAMES-eng: 5
        NUMBER_OF_BYTES : 1149
        NUMBER_OF_BYTES-eng: 1149
  Stream #1:4(rus): Subtitle: ass (ssa)
      Metadata:
        title           : Полные
        _STATISTICS_WRITING_APP: mkvmerge v7.3.0 ('Nouages') 64bit built on Oct 22 2014 18:53:34
        _STATISTICS_WRITING_APP-eng: mkvmerge v7.3.0 ('Nouages') 64bit built on Oct 22 2014 18:53:34
        _STATISTICS_WRITING_DATE_UTC: 2017-08-07 05:44:18
        _STATISTICS_WRITING_DATE_UTC-eng: 2017-08-07 05:44:18
        _STATISTICS_TAGS: BPS DURATION NUMBER_OF_FRAMES NUMBER_OF_BYTES
        _STATISTICS_TAGS-eng: BPS DURATION NUMBER_OF_FRAMES NUMBER_OF_BYTES
        BPS             : 166
        BPS-eng         : 166
        DURATION        : 00:21:56.500000000
        DURATION-eng    : 00:21:56.500000000
        NUMBER_OF_FRAMES: 300
        NUMBER_OF_FRAMES-eng: 300
        NUMBER_OF_BYTES : 27413
        NUMBER_OF_BYTES-eng: 27413
  Stream #1:5: Attachment: ttf
      Metadata:
        filename        : ALBR.ttf
        mimetype        : application/x-truetype-font
  Stream #1:6: Attachment: ttf
      Metadata:
        filename        : 9511(1).ttf
        mimetype        : application/x-truetype-font
Stream mapping:
  Stream #0:0 (hevc) -> settb:default
  Stream #1:0 (h264) -> settb:default
  ssim:default -> Stream #0:0 (wrapped_avframe)
  Stream #0:1 -> #0:1 (aac (native) -> pcm_s16le (native))
Output #0, null, to 'pipe:':
  Metadata:
    encoder         : Lavf61.7.100
  Stream #0:0: Video: wrapped_avframe, yuv420p10le(tv, bt709, progressive), 1280x720 [SAR 1:1 DAR 16:9], q=2-31, 200 kb/s, 23.98 fps, 23.98 tbn
      Metadata:
        encoder         : Lavc61.19.100 wrapped_avframe
  Stream #0:1(rus): Audio: pcm_s16le, 48000 Hz, stereo, s16, 1536 kb/s (default)
      Metadata:
        title           : Ados Amikiri Anzen Hekomi Silv
        _STATISTICS_TAGS: BPS DURATION NUMBER_OF_FRAMES NUMBER_OF_BYTES
        BPS             : 194247
        DURATION        : 00:24:00.106000000
        NUMBER_OF_FRAMES: 67506
        NUMBER_OF_BYTES : 34967110
        _STATISTICS_WRITING_APP: mkvpropedit v66.0.0 ('Josie') 64-bit
        _STATISTICS_WRITING_DATE_UTC: 2025-06-16 15:12:22
        encoder         : Lavc61.19.100 pcm_s16le
frame=  439 fps=0.0 q=-0.0 size=N/A time=00:00:18.30 bitrate=N/A speed=35.3x    frame= 1049 fps=1004 q=-0.0 size=N/A time=00:00:43.75 bitrate=N/A speed=41.9x    frame= 1616 fps=1040 q=-0.0 size=N/A time=00:01:07.40 bitrate=N/A speed=43.4x    frame= 2195 fps=1064 q=-0.0 size=N/A time=00:01:31.54 bitrate=N/A speed=44.4x    frame= 2672 fps=1032 q=-0.0 size=N/A time=00:01:51.44 bitrate=N/A speed=43.1x    frame= 3092 fps=998 q=-0.0 size=N/A time=00:02:08.96 bitrate=N/A speed=41.6x    frame= 3604 fps=998 q=-0.0 size=N/A time=00:02:30.31 bitrate=N/A speed=41.6x    frame= 4020 fps=972 q=-0.0 size=N/A time=00:02:47.66 bitrate=N/A speed=40.5x    frame= 4359 fps=938 q=-0.0 size=N/A time=00:03:01.80 bitrate=N/A speed=39.1x    frame= 4843 fps=939 q=-0.0 size=N/A time=00:03:21.99 bitrate=N/A speed=39.2x    frame= 5244 fps=923 q=-0.0 size=N/A time=00:03:38.71 bitrate=N/A speed=38.5x    frame= 5768 fps=932 q=-0.0 size=N/A time=00:04:00.57 bitrate=N/A speed=38.9x    frame= 6231 fps=928 q=-0.0 size=N/A time=00:04:19.88 bitrate=N/A speed=38.7x    frame= 6685 fps=926 q=-0.0 size=N/A time=00:04:38.82 bitrate=N/A speed=38.6x    frame= 7227 fps=933 q=-0.0 size=N/A time=00:05:01.42 bitrate=N/A speed=38.9x    frame= 7617 fps=922 q=-0.0 size=N/A time=00:05:17.69 bitrate=N/A speed=38.5x    frame= 8076 fps=921 q=-0.0 size=N/A time=00:05:36.83 bitrate=N/A speed=38.4x    frame= 8594 fps=925 q=-0.0 size=N/A time=00:05:58.44 bitrate=N/A speed=38.6x    frame= 9095 fps=928 q=-0.0 size=N/A time=00:06:19.33 bitrate=N/A speed=38.7x    frame= 9652 fps=936 q=-0.0 size=N/A time=00:06:42.56 bitrate=N/A speed=  39x    frame=10216 fps=942 q=-0.0 size=N/A time=00:07:06.09 bitrate=N/A speed=39.3x    frame=10722 fps=943 q=-0.0 size=N/A time=00:07:27.19 bitrate=N/A speed=39.3x    frame=11276 fps=949 q=-0.0 size=N/A time=00:07:50.30 bitrate=N/A speed=39.6x    frame=11759 fps=948 q=-0.0 size=N/A time=00:08:10.44 bitrate=N/A speed=39.6x    frame=12030 fps=932 q=-0.0 size=N/A time=00:08:21.75 bitrate=N/A speed=38.9x    frame=12552 fps=934 q=-0.0 size=N/A time=00:08:43.52 bitrate=N/A speed=  39x    frame=13145 fps=941 q=-0.0 size=N/A time=00:09:08.25 bitrate=N/A speed=39.3x    frame=13619 fps=941 q=-0.0 size=N/A time=00:09:28.02 bitrate=N/A speed=39.3x    frame=14017 fps=935 q=-0.0 size=N/A time=00:09:44.62 bitrate=N/A speed=  39x    frame=14518 fps=936 q=-0.0 size=N/A time=00:10:05.52 bitrate=N/A speed=  39x    frame=14946 fps=933 q=-0.0 size=N/A time=00:10:23.37 bitrate=N/A speed=38.9x    frame=15416 fps=932 q=-0.0 size=N/A time=00:10:42.97 bitrate=N/A speed=38.9x    frame=15981 fps=937 q=-0.0 size=N/A time=00:11:06.54 bitrate=N/A speed=39.1x    frame=16409 fps=934 q=-0.0 size=N/A time=00:11:24.39 bitrate=N/A speed=  39x    frame=16791 fps=928 q=-0.0 size=N/A time=00:11:40.32 bitrate=N/A speed=38.7x    frame=17272 fps=929 q=-0.0 size=N/A time=00:12:00.38 bitrate=N/A speed=38.7x    frame=17752 fps=928 q=-0.0 size=N/A time=00:12:20.40 bitrate=N/A speed=38.7x    frame=18166 fps=925 q=-0.0 size=N/A time=00:12:37.67 bitrate=N/A speed=38.6x    frame=18729 fps=930 q=-0.0 size=N/A time=00:13:01.15 bitrate=N/A speed=38.8x    frame=19222 fps=930 q=-0.0 size=N/A time=00:13:21.71 bitrate=N/A speed=38.8x    frame=19780 fps=933 q=-0.0 size=N/A time=00:13:44.99 bitrate=N/A speed=38.9x    frame=20319 fps=936 q=-0.0 size=N/A time=00:14:07.47 bitrate=N/A speed=  39x    frame=20980 fps=944 q=-0.0 size=N/A time=00:14:35.04 bitrate=N/A speed=39.4x    frame=21483 fps=945 q=-0.0 size=N/A time=00:14:56.02 bitrate=N/A speed=39.4x    frame=22046 fps=948 q=-0.0 size=N/A time=00:15:19.50 bitrate=N/A speed=39.5x    frame=22545 fps=948 q=-0.0 size=N/A time=00:15:40.31 bitrate=N/A speed=39.6x    frame=22984 fps=947 q=-0.0 size=N/A time=00:15:58.62 bitrate=N/A speed=39.5x    frame=23551 fps=949 q=-0.0 size=N/A time=00:16:22.27 bitrate=N/A speed=39.6x    frame=23925 fps=945 q=-0.0 size=N/A time=00:16:37.87 bitrate=N/A speed=39.4x    frame=24471 fps=947 q=-0.0 size=N/A time=00:17:00.64 bitrate=N/A speed=39.5x    frame=25074 fps=952 q=-0.0 size=N/A time=00:17:25.79 bitrate=N/A speed=39.7x    frame=25366 fps=944 q=-0.0 size=N/A time=00:17:37.97 bitrate=N/A speed=39.4x    frame=25857 fps=944 q=-0.0 size=N/A time=00:17:58.45 bitrate=N/A speed=39.4x    frame=26437 fps=948 q=-0.0 size=N/A time=00:18:22.64 bitrate=N/A speed=39.5x    frame=26971 fps=949 q=-0.0 size=N/A time=00:18:44.91 bitrate=N/A speed=39.6x    frame=27573 fps=953 q=-0.0 size=N/A time=00:19:10.02 bitrate=N/A speed=39.8x    frame=28040 fps=952 q=-0.0 size=N/A time=00:19:29.50 bitrate=N/A speed=39.7x    frame=28604 fps=955 q=-0.0 size=N/A time=00:19:53.02 bitrate=N/A speed=39.8x    frame=29164 fps=957 q=-0.0 size=N/A time=00:20:16.38 bitrate=N/A speed=39.9x    frame=29580 fps=955 q=-0.0 size=N/A time=00:20:33.73 bitrate=N/A speed=39.8x    frame=30030 fps=953 q=-0.0 size=N/A time=00:20:52.50 bitrate=N/A speed=39.7x    frame=30354 fps=948 q=-0.0 size=N/A time=00:21:06.01 bitrate=N/A speed=39.5x    frame=30893 fps=950 q=-0.0 size=N/A time=00:21:28.49 bitrate=N/A speed=39.6x    frame=31470 fps=952 q=-0.0 size=N/A time=00:21:52.56 bitrate=N/A speed=39.7x    frame=32006 fps=953 q=-0.0 size=N/A time=00:22:14.91 bitrate=N/A speed=39.8x    frame=32423 fps=951 q=-0.0 size=N/A time=00:22:32.30 bitrate=N/A speed=39.7x    frame=32749 fps=946 q=-0.0 size=N/A time=00:22:45.90 bitrate=N/A speed=39.5x    frame=33225 fps=946 q=-0.0 size=N/A time=00:23:05.75 bitrate=N/A speed=39.5x    frame=33595 fps=943 q=-0.0 size=N/A time=00:23:21.19 bitrate=N/A speed=39.3x    frame=33929 fps=938 q=-0.0 size=N/A time=00:23:35.12 bitrate=N/A speed=39.1x    frame=34263 fps=934 q=-0.0 size=N/A time=00:23:49.05 bitrate=N/A speed=  39x    [Parsed_ssim_10 @ 000001d7f60a0780] SSIM Y:0.983618 (17.856389) U:0.989580 (19.821304) V:0.989905 (19.959026) All:0.985660 (18.434410)
[out#0/null @ 000001d7ee8be080] video:14836KiB audio:270024KiB subtitle:0KiB other streams:0KiB global headers:0KiB muxing overhead: unknown
frame=34527 fps=936 q=-0.0 Lsize=N/A time=00:24:00.06 bitrate=N/A speed=  39x    
